# xmcd
#
# Track frame offsets: 
#        150
#        20422
#        42637
#        59282
#        75910
#        101030
#        113502
#        139652
#        156620
#        180172
#        197225
#        211620
#        242392
#        261005
#        279440
#        300367
#
# Disc length: 4279 seconds
#
# Revision: 3
# Processed by: cddbd v1.5.2PL0 Copyright (c) Steve Scherf et al.
# Submitted via: ExactAudioCopy v1.5
#
DISCID=c910b510
DTITLE=David Lynch Lantsias Stayros Paspala Ellh - Trio
DYEAR=2001
DGENRE=Vocal
TTITLE0=sagapw (enar3h)
TTITLE1=Astoria
TTITLE2=leuko mou giasemi
TTITLE3=gia th synh9eia tou erwta
TTITLE4=o 9anatos tou tayrou
TTITLE5=xartino to feggaraki
TTITLE6=to ta3idi tou paravath
TTITLE7=h megalh diafora
TTITLE8=kryfh plhgh
TTITLE9=Amara Me
TTITLE10=Enos Leptou Fili
TTITLE11=Song For a Love Lost
TTITLE12=to valse twn matiwn
TTITLE13=na valw ta meta3wta
TTITLE14=sagapw (finale)
TTITLE15=pes mou mia le3h
EXTD=Great album. Tassos Roussos
EXTT0=
EXTT1=
EXTT2=
EXTT3=
EXTT4=
EXTT5=
EXTT6=
EXTT7=
EXTT8=
EXTT9=
EXTT10=
EXTT11=
EXTT12=
EXTT13=
EXTT14=
EXTT15=
PLAYORDER=
